<svg xmlns="http://www.w3.org/2000/svg" viewBox="0 0 64 64" width="64" height="64">
  <defs>
    <linearGradient id="g" x1="0" y1="0" x2="1" y2="1">
      <stop offset="0" stop-color="#FF8A4D"/>
      <stop offset="1" stop-color="#E85A2D"/>
    </linearGradient>
  </defs>
  <rect width="64" height="64" rx="16" fill="url(#g)"/>
  <g fill="#fff">
    <ellipse cx="22" cy="24" rx="5" ry="7"/>
    <ellipse cx="42" cy="24" rx="5" ry="7"/>
    <ellipse cx="14" cy="35" rx="5" ry="6.5"/>
    <ellipse cx="50" cy="35" rx="5" ry="6.5"/>
    <path d="M32 34c-6 0-11 4.5-11 10.5 0 4.2 3.4 6.5 7 6.5 2.2 0 3-1 4-1s1.8 1 4 1c3.6 0 7-2.3 7-6.5C43 38.5 38 34 32 34z"/>
  </g>
</svg>
